<svg xmlns="http://www.w3.org/2000/svg" version="1.1" xmlns:xlink="http://www.w3.org/1999/xlink"
    xmlns:svgjs="http://svgjs.dev/svgjs" viewBox="0 0 800 800">
    <defs>
        <linearGradient x1="50%" y1="0%" x2="50%" y2="100%" id="vvvortex-grad">
            <stop stop-color="hsl(230, 55%, 50%)" stop-opacity="1" offset="0%"></stop>
            <stop stop-color="hsl(230, 55%, 70%)" stop-opacity="1" offset="100%"></stop>
        </linearGradient>
    </defs>
    <g stroke="url(#vvvortex-grad)" fill="none" stroke-linecap="round">
        <circle r="363" cx="400" cy="400" stroke-width="11" stroke-dasharray="52 55" stroke-dashoffset="25"
            transform="rotate(73, 400, 400)" opacity="0.05"></circle>
        <circle r="346.5" cx="400" cy="400" stroke-width="11" stroke-dasharray="31 23" stroke-dashoffset="25"
            transform="rotate(111, 400, 400)" opacity="0.10"></circle>
        <circle r="330" cx="400" cy="400" stroke-width="10" stroke-dasharray="22 42" stroke-dashoffset="25"
            transform="rotate(310, 400, 400)" opacity="0.14"></circle>
        <circle r="313.5" cx="400" cy="400" stroke-width="10" stroke-dasharray="24 29" stroke-dashoffset="25"
            transform="rotate(182, 400, 400)" opacity="0.19"></circle>
        <circle r="297" cx="400" cy="400" stroke-width="10" stroke-dasharray="36 50" stroke-dashoffset="25"
            transform="rotate(229, 400, 400)" opacity="0.23"></circle>
        <circle r="280.5" cx="400" cy="400" stroke-width="10" stroke-dasharray="30 12" stroke-dashoffset="25"
            transform="rotate(307, 400, 400)" opacity="0.28"></circle>
        <circle r="264" cx="400" cy="400" stroke-width="9" stroke-dasharray="14 19" stroke-dashoffset="25"
            transform="rotate(302, 400, 400)" opacity="0.32"></circle>
        <circle r="247.5" cx="400" cy="400" stroke-width="9" stroke-dasharray="49 43" stroke-dashoffset="25"
            transform="rotate(182, 400, 400)" opacity="0.37"></circle>
        <circle r="231" cx="400" cy="400" stroke-width="9" stroke-dasharray="42 36" stroke-dashoffset="25"
            transform="rotate(231, 400, 400)" opacity="0.41"></circle>
        <circle r="214.5" cx="400" cy="400" stroke-width="8" stroke-dasharray="37 31" stroke-dashoffset="25"
            transform="rotate(97, 400, 400)" opacity="0.46"></circle>
        <circle r="198" cx="400" cy="400" stroke-width="8" stroke-dasharray="22 52" stroke-dashoffset="25"
            transform="rotate(222, 400, 400)" opacity="0.50"></circle>
        <circle r="181.5" cx="400" cy="400" stroke-width="8" stroke-dasharray="30 36" stroke-dashoffset="25"
            transform="rotate(209, 400, 400)" opacity="0.55"></circle>
        <circle r="165" cx="400" cy="400" stroke-width="8" stroke-dasharray="41 53" stroke-dashoffset="25"
            transform="rotate(34, 400, 400)" opacity="0.59"></circle>
        <circle r="148.5" cx="400" cy="400" stroke-width="7" stroke-dasharray="16 36" stroke-dashoffset="25"
            transform="rotate(48, 400, 400)" opacity="0.64"></circle>
        <circle r="132" cx="400" cy="400" stroke-width="7" stroke-dasharray="33 32" stroke-dashoffset="25"
            transform="rotate(31, 400, 400)" opacity="0.68"></circle>
        <circle r="115.5" cx="400" cy="400" stroke-width="7" stroke-dasharray="51 43" stroke-dashoffset="25"
            transform="rotate(118, 400, 400)" opacity="0.73"></circle>
        <circle r="99" cx="400" cy="400" stroke-width="6" stroke-dasharray="52 53" stroke-dashoffset="25"
            transform="rotate(111, 400, 400)" opacity="0.77"></circle>
        <circle r="82.5" cx="400" cy="400" stroke-width="6" stroke-dasharray="24 20" stroke-dashoffset="25"
            transform="rotate(163, 400, 400)" opacity="0.82"></circle>
        <circle r="66" cx="400" cy="400" stroke-width="6" stroke-dasharray="50 37" stroke-dashoffset="25"
            transform="rotate(331, 400, 400)" opacity="0.86"></circle>
        <circle r="49.5" cx="400" cy="400" stroke-width="6" stroke-dasharray="52 28" stroke-dashoffset="25"
            transform="rotate(63, 400, 400)" opacity="0.91"></circle>
        <circle r="33" cx="400" cy="400" stroke-width="5" stroke-dasharray="38 48" stroke-dashoffset="25"
            transform="rotate(165, 400, 400)" opacity="0.95"></circle>
        <circle r="16.5" cx="400" cy="400" stroke-width="5" stroke-dasharray="40 55" stroke-dashoffset="25"
            transform="rotate(159, 400, 400)" opacity="1.00"></circle>
    </g>
</svg>